<?xml version="1.0" encoding="UTF-8"?>
<svg width="28px" height="23px" viewBox="0 0 28 23" version="1.1" xmlns="http://www.w3.org/2000/svg" xmlns:xlink="http://www.w3.org/1999/xlink">
    <!-- Generator: Sketch 64 (93537) - https://sketch.com -->
    <title>Path</title>
    <desc>Created with Sketch.</desc>
    <g id="Page-1" stroke="none" stroke-width="1" fill="none" fill-rule="evenodd" stroke-linecap="round" stroke-linejoin="round">
        <g id="My-travels---Create-Copy-3" transform="translate(-585.000000, -1057.000000)" stroke="#FFFFFF" stroke-width="2">
            <g id="entry-2" transform="translate(308.000000, 1039.000000)">
                <g id="entry_type" transform="translate(260.000000, 0.000000)">
                    <g id="twitter" transform="translate(18.000000, 19.000000)">
                        <path d="M25.4736842,0.157894737 C24.3648668,0.940026471 23.1371775,1.53823176 21.8378947,1.92947368 C20.4094689,0.287043762 18.1075863,-0.288920271 16.0739891,0.487261871 C14.0403919,1.26344401 12.7076635,3.22666417 12.7368421,5.40315789 L12.7368421,6.56105263 C8.60392769,6.66821857 4.69181878,4.69912375 2.31578947,1.31578947 C2.31578947,1.31578947 -2.31578947,11.7368421 8.10526316,16.3684211 C5.72061086,17.9871189 2.8798659,18.7987603 0,18.6842105 C10.4210526,24.4736842 23.1578947,18.6842105 23.1578947,5.36842105 C23.1568284,5.04589369 23.1258182,4.72416194 23.0652632,4.40736842 C24.2470142,3.24193936 25.080958,1.77050954 25.4736842,0.157894737 Z" id="Path"></path>
                    </g>
                </g>
            </g>
        </g>
    </g>
</svg>