<?xml version="1.0" encoding="UTF-8"?>
<svg width="27px" height="23px" viewBox="0 0 27 23" version="1.1" xmlns="http://www.w3.org/2000/svg" xmlns:xlink="http://www.w3.org/1999/xlink">
    <!-- Generator: Sketch 64 (93537) - https://sketch.com -->
    <title>Path</title>
    <desc>Created with Sketch.</desc>
    <g id="Page-1" stroke="none" stroke-width="1" fill="none" fill-rule="evenodd" stroke-linecap="round" stroke-linejoin="round">
        <g id="User-Profile" transform="translate(-580.000000, -1396.000000)" stroke="#979797" stroke-width="2">
            <g id="post" transform="translate(537.000000, 1138.000000)">
                <g id="likes" transform="translate(44.000000, 250.000000)">
                    <g id="heart" transform="translate(0.000000, 9.000000)">
                        <path d="M22.5454545,1.82954545 C21.373268,0.656808486 19.7831114,-0.00207456954 18.125,-0.00207456954 C16.4668886,-0.00207456954 14.876732,0.656808486 13.7045455,1.82954545 L12.5,3.03409091 L11.2954545,1.82954545 C8.8541049,-0.611804116 4.89589513,-0.611804087 2.45454552,1.82954552 C0.0131959134,4.27089513 0.0131958839,8.2291049 2.45454545,10.6704545 L3.65909091,11.875 L12.5,20.7159091 L21.3409091,11.875 L22.5454545,10.6704545 C23.7181915,9.49826796 24.3770746,7.9081114 24.3770746,6.25 C24.3770746,4.5918886 23.7181915,3.00173204 22.5454545,1.82954545 Z" id="Path"></path>
                    </g>
                </g>
            </g>
        </g>
    </g>
</svg>