<?xml version="1.0" encoding="UTF-8"?>
<svg width="17px" height="17px" viewBox="0 0 17 17" version="1.1" xmlns="http://www.w3.org/2000/svg" xmlns:xlink="http://www.w3.org/1999/xlink">
    <!-- Generator: Sketch 64 (93537) - https://sketch.com -->
    <title>Shape</title>
    <desc>Created with Sketch.</desc>
    <g id="Page-1" stroke="none" stroke-width="1" fill="none" fill-rule="evenodd" stroke-linecap="round" stroke-linejoin="round">
        <path d="M9.99988463,6.2499327 L9.99988463,3.24997116 C9.99988463,2.0073464 8.99253823,1 7.74991347,1 L4.74995193,7.74991347 L4.74995193,15.999905 L13.2098435,15.999905 C13.957799,16.0082634 14.5976716,15.4643717 14.7098243,14.7248241 L15.744811,7.97491059 C15.8108522,7.53980766 15.6824847,7.09765344 15.3937094,6.76556185 C15.1049341,6.43347026 14.6848884,6.24494928 14.2448302,6.2499327 L9.99988463,6.2499327 Z M4.74995193,15.9998077 L2.49998077,15.9998077 C1.67156427,15.9998077 1,15.3282435 1,14.4998269 L1,9.24989425 C1,8.42147774 1.67156427,7.74991347 2.49998077,7.74991347 L4.74995193,7.74991347" id="Shape" stroke="#808080" stroke-width="2"></path>
    </g>
</svg>