<?xml version="1.0" encoding="UTF-8"?>
<svg width="19px" height="19px" viewBox="0 0 19 19" version="1.1" xmlns="http://www.w3.org/2000/svg" xmlns:xlink="http://www.w3.org/1999/xlink">
    <!-- Generator: Sketch 64 (93537) - https://sketch.com -->
    <title>icon</title>
    <desc>Created with Sketch.</desc>
    <g id="Page-1" stroke="none" stroke-width="1" fill="none" fill-rule="evenodd">
        <g id="icon" transform="translate(1.000000, 1.000000)" stroke="#808080" stroke-width="1.5">
            <path d="M8.5,0 C13.1944204,0 17,3.80557963 17,8.5 C17,13.1944204 13.1944204,17 8.5,17 C3.80557963,17 0,13.1944204 0,8.5 C0,3.80557963 3.80557963,0 8.5,0 Z M10.8611111,10.8611111 L6.13888889,10.8611111 C4.83488323,10.8611111 3.77777778,11.9182166 3.77777778,13.2222222 L3.77777778,15.2527778 C4.90067961,15.9840856 5.94677788,16.4574299 6.91607259,16.6728109 C8.37001465,16.9958823 8.47149744,17.0549361 10.168457,16.6728109 L13.2222222,15.2527778 L13.2222222,13.2222222 C13.2222222,11.9182166 12.1651168,10.8611111 10.8611111,10.8611111 Z M8.5,3.77777778 C7.19599434,3.77777778 6.13888889,4.83488323 6.13888889,6.13888889 C6.13888889,7.44289455 7.19599434,8.5 8.5,8.5 C9.80400566,8.5 10.8611111,7.44289455 10.8611111,6.13888889 C10.8611111,4.83488323 9.80400566,3.77777778 8.5,3.77777778 Z" id="Combined-Shape"></path>
        </g>
    </g>
</svg>