<?xml version="1.0" encoding="UTF-8"?>
<svg width="149px" height="125px" viewBox="0 0 149 125" version="1.1" xmlns="http://www.w3.org/2000/svg" xmlns:xlink="http://www.w3.org/1999/xlink">
    <!-- Generator: Sketch 64 (93537) - https://sketch.com -->
    <title>weTravel_logo</title>
    <desc>Created with Sketch.</desc>
    <g id="Page-1" stroke="none" stroke-width="1" fill="none" fill-rule="evenodd">
        <g id="Register" transform="translate(-400.000000, -458.000000)">
            <g id="weTravel_logo" transform="translate(388.000000, 446.000000)">
                <path d="M74.8568827,135.228232 C108.570828,135.177799 135.942264,107.947988 135.992766,74.4087445 C136.043128,40.8695014 108.753459,13.7214562 75.0395136,13.7718182 C41.3255685,13.8223205 13.9541327,41.0521323 13.9037006,74.5913754" id="Oval-Copy" stroke="#FFFFFF" stroke-width="3" stroke-linejoin="round" stroke-dasharray="8,8" transform="translate(74.948233, 74.500025) rotate(-165.000000) translate(-74.948233, -74.500025) "></path>
                <path d="M79.0577388,105.99905 C84.9618743,106.08204 91.0255811,100.729156 97.2488592,89.9403985 C99.3232852,86.3718094 101.397711,81.7243444 103.472137,75.9980037 C109.695415,76.7449177 115.599551,75.9565084 121.184544,73.632776 C121.902614,73.3008142 122.102078,72.4294145 121.782936,71.0185769 C121.543579,70.105682 121.184544,69.732225 120.70583,69.8982059 C118.551619,70.8940913 116.138104,71.6410053 113.465286,72.1389479 C110.792467,72.6368906 107.860346,72.6368906 104.668921,72.1389479 C106.344419,65.3337314 106.942811,59.5244002 106.464098,54.7109544 C106.144955,51.3083461 105.327153,48.6526519 104.01069,46.7438716 C102.694227,44.8350914 101.158354,43.9221965 99.4030708,44.0051869 C97.6477872,44.0881773 96.0121821,45.1255579 94.4962554,47.1173286 C92.9005431,49.1920897 91.8034909,51.8270364 91.2050988,55.0221685 C90.6067066,58.2173007 90.7862243,61.5161709 91.7436517,64.9187792 C93.1797928,69.732225 95.7728253,72.9688524 99.5227492,74.6286613 C98.2461794,78.2802409 96.1717534,82.6372393 93.2994712,87.6996565 C91.5441876,90.9362839 89.4298688,93.9239399 86.9565147,96.6626246 C84.4831606,99.4013093 82.129485,100.646166 79.8954877,100.397195 C78.9380603,100.314204 78.3197218,99.5880378 78.0404722,98.2186955 C77.7612225,96.8493531 77.7612225,95.2102918 78.0404722,93.3015116 C78.3197218,91.3927313 78.6388643,89.5669415 78.9978995,87.8241422 C79.3569348,86.0813428 79.7359165,84.5875148 80.1348446,83.3426581 C80.453987,82.2637823 80.8529151,81.0189256 81.3316288,79.608088 C81.8103425,78.1972505 82.1693778,77.0768795 82.4087346,76.246975 C82.6480915,75.4170705 82.9472875,74.483428 83.3063228,73.4460475 C83.6653581,72.4086669 83.9246613,71.5787624 84.0842326,70.9563341 C84.2438038,70.3339058 84.403375,69.6492346 84.5629462,68.9023206 C84.7225175,68.1554066 84.8222495,67.5537258 84.8621423,67.0972784 C84.9020351,66.6408309 84.9219815,66.1636359 84.9219815,65.6656932 C84.9219815,65.1677505 84.8621423,64.7527983 84.7424639,64.4208365 C84.6227855,64.0888747 84.4831606,63.7984082 84.3235894,63.5494368 C83.1268052,61.8896279 81.6707177,60.6655188 79.9553269,59.8771096 C78.2399362,59.0887004 76.7040631,58.9849623 75.3477076,59.5658954 C74.0711378,60.229819 72.7945679,61.5161709 71.5179981,63.4249512 C70.2414282,65.3337314 68.0872166,69.2757776 65.0553632,75.2510897 C61.2256536,82.7202298 58.1140146,87.8656374 55.7204461,90.6873125 C54.7630187,91.7661883 54.0449482,92.3056262 53.5662345,92.3056262 C52.4492359,92.3056262 52.5290215,89.2764749 53.8055913,83.2181724 C55.8002317,73.8402521 57.5555153,67.7819496 59.071442,65.0432648 C59.6299413,63.9643891 58.9517636,62.7817752 57.0369088,61.4954233 C55.122054,60.2090714 53.0675744,59.4414098 50.87347,59.1924384 C48.6793655,58.9434671 46.9839212,59.482905 45.787137,60.8107521 C42.5957123,65.7901789 41,72.9273572 41,82.2222871 C41,86.5377902 42.0172666,90.4798364 44.0517998,94.0484256 C46.086333,97.6170147 48.4599551,99.4013093 51.172666,99.4013093 C52.4492359,99.4013093 53.6061273,99.1108427 54.6433403,98.5299096 C55.6805533,97.9489765 56.4983559,97.3472958 57.096748,96.7248674 C57.6951401,96.1024391 58.4730499,95.1687966 59.4304773,93.9239399 C61.8240457,90.770303 64.4968639,86.1643332 67.4489317,80.1060307 C66.7308611,83.0106963 66.4915043,86.3303141 66.7308611,90.0648842 C66.970218,93.7994542 67.6882885,96.745615 68.8850727,98.9033666 C69.9222857,100.978128 71.3983196,102.679432 73.3131744,104.007279 C75.2280292,105.335126 77.142884,105.99905 79.0577388,105.99905 Z M103.127335,70.9565217 C100.839878,69.9867651 99.1471597,68.0913317 98.0491803,65.2702215 C96.9512009,62.4491113 96.5852078,59.4516817 96.9512009,56.2779327 C97.3171941,53.1041838 98.2321769,50.4593929 99.6961494,48.3435603 C100.794129,46.7566858 101.846359,46.3158873 102.85284,47.0211649 C104.408311,48.0790812 105.186047,50.6357123 105.186047,54.6910582 C105.186047,61.0385562 104.499809,66.4603774 103.127335,70.9565217 Z M131.692062,89.826087 C133.635936,89.826087 135.622069,89.5375615 137.650459,88.9605106 C139.67885,88.3834596 141.453691,87.7239729 142.974984,86.9820503 C144.496277,86.2401276 146.24999,85.1478527 148.236122,83.7052254 C150.222255,82.2625981 151.722418,81.0878872 152.736614,80.1810929 C153.750809,79.2742986 155.229844,77.9759341 157.173718,76.2859992 C159.117592,74.5960644 160.385336,73.4625715 160.97695,72.8855205 C161.061466,72.8855205 160.913563,72.617604 160.53324,72.081771 C160.152916,71.545938 159.730335,71.0719319 159.265496,70.6597527 C158.800656,70.2475735 158.48372,70.1239197 158.314688,70.2887914 C157.80759,70.7009706 156.708878,71.6695918 155.018553,73.194655 C153.328228,74.7197181 152.039354,75.853211 151.151934,76.5951336 C150.264513,77.3370562 148.97564,78.3262864 147.285314,79.5628241 C145.594989,80.7993618 144.158212,81.7267651 142.974984,82.3450339 C141.791756,82.9633028 140.397238,83.5197447 138.791429,84.0143598 C137.18562,84.5089749 135.664327,84.7562824 134.22755,84.7562824 C132.706257,84.7562824 131.565288,84.0761867 130.804641,82.7159952 C130.043995,81.3558037 129.663671,79.6864779 129.663671,77.7080176 C129.579155,74.9876346 130.128511,72.3084696 131.311739,69.6705225 C134.776906,69.6705225 137.988524,68.5988565 140.946594,66.4555245 C144.411761,63.9824491 146.228861,60.849887 146.397893,57.0578381 C146.397893,54.914506 145.679505,53.1009174 144.242728,51.6170722 C142.805952,50.133227 140.650787,49.3913043 137.777234,49.3913043 C133.889485,49.4737402 129.874962,51.4522005 125.733665,55.3266853 C121.592368,59.2011701 118.803331,63.4466161 117.366554,68.0630235 C115.929777,72.6794309 116.014294,76.924877 117.620103,80.7993618 C118.803331,83.6846164 120.64156,85.9103843 123.13479,87.4766653 C125.62802,89.0429464 128.480444,89.826087 131.692062,89.826087 Z M138.342045,64.7268854 C136.814543,65.3905649 136.003057,65.6601847 135.907588,65.5357448 C135.812119,65.4113049 136.003057,64.9342852 136.480402,64.1046859 C136.957746,63.2750865 137.602161,62.3417872 138.413647,61.304788 C139.225133,60.2677888 140.012751,59.4174494 140.776503,58.7537699 C141.158378,58.5048901 141.516387,58.2767503 141.850528,58.0693504 C142.184669,57.8619506 142.542677,57.6960307 142.924553,57.5715908 C143.306429,57.4471509 143.616703,57.4471509 143.855375,57.5715908 C144.094047,57.6960307 144.213383,57.9656505 144.213383,58.3804502 C144.404321,59.4589294 143.950844,60.5788885 142.852951,61.7403276 C141.755059,62.9017668 140.251424,63.897286 138.342045,64.7268854 Z" id="we" fill="#F2F2F4" fill-rule="nonzero"></path>
            </g>
        </g>
    </g>
</svg>