<?xml version="1.0" encoding="UTF-8"?>
<svg width="80px" height="80px" viewBox="0 0 80 80" version="1.1" xmlns="http://www.w3.org/2000/svg" xmlns:xlink="http://www.w3.org/1999/xlink">
    <!-- Generator: Sketch 64 (93537) - https://sketch.com -->
    <title>Group 3</title>
    <desc>Created with Sketch.</desc>
    <g id="Symbols" stroke="none" stroke-width="1" fill="none" fill-rule="evenodd">
        <g id="Group-3">
            <rect id="Rectangle" fill="#EE3263" x="0" y="0" width="80" height="80"></rect>
            <g id="weTravel_logo" transform="translate(15.000000, 17.000000)">
                <path d="M22.3167059,41.1020559 C32.3679392,41.0865383 40.5286533,32.9694009 40.544193,22.971922 C40.5596885,12.9744431 32.4241334,4.88246457 22.3729,4.89795987 C12.3216666,4.91349973 4.16095253,13.0306372 4.14543495,23.0281161" id="Oval-Copy" stroke="#FFFFFF" stroke-width="2" stroke-linejoin="round" stroke-dasharray="9,5" transform="translate(22.344814, 23.000008) rotate(-165.000000) translate(-22.344814, -23.000008) "></path>
                <path d="M23.4173216,31.9997241 C25.1885623,32.0238181 27.0076743,30.4697551 28.8746577,27.3375351 C29.4969856,26.301493 30.1193134,24.952229 30.7416412,23.289743 C32.6086246,23.506589 34.3798652,23.277696 36.0553632,22.603064 C36.2707843,22.506688 36.3306235,22.253701 36.2348808,21.844103 C36.1630738,21.579069 36.0553632,21.470646 35.9117491,21.518834 C35.2654856,21.807962 34.5414311,22.024808 33.7395857,22.169372 C32.9377402,22.313936 32.0581038,22.313936 31.1006764,22.169372 C31.6033258,20.193664 31.7828434,18.5070839 31.6392293,17.1096319 C31.5434866,16.1217779 31.2981458,15.3507699 30.903207,14.7966079 C30.5082682,14.2424459 30.0475063,13.9774119 29.5209212,14.0015059 C28.9943362,14.0255999 28.5036546,14.3267749 28.0488766,14.9050309 C27.5701629,15.5073809 27.2410473,16.2723654 27.0615296,17.1999844 C26.882012,18.1276034 26.9358673,19.0853399 27.2230955,20.073194 C27.6539378,21.470646 28.4318476,22.410312 29.5568248,22.892192 C29.1738538,23.952328 28.551526,25.217263 27.6898414,26.686997 C27.1632563,27.6266631 26.5289606,28.4940471 25.7869544,29.2891491 C25.0449482,30.0842511 24.3388455,30.4456611 23.6686463,30.3733791 C23.3814181,30.3492851 23.1959165,30.1384626 23.1121416,29.7409116 C23.0283667,29.3433606 23.0283667,28.8675041 23.1121416,28.3133421 C23.1959165,27.7591801 23.2916593,27.2291121 23.3993699,26.723138 C23.5070804,26.217164 23.6207749,25.783472 23.7404534,25.422062 C23.8361961,25.10884 23.9558745,24.74743 24.0994886,24.337832 C24.2431028,23.928234 24.3508133,23.602965 24.4226204,23.362025 C24.4944274,23.121085 24.5841863,22.8500275 24.6918968,22.5488525 C24.7996074,22.2476775 24.8773984,22.0067375 24.9252698,21.8260325 C24.9731411,21.6453275 25.0210125,21.446552 25.0688839,21.229706 C25.1167552,21.01286 25.1466748,20.8381785 25.1586427,20.7056615 C25.1706105,20.5731445 25.1765945,20.434604 25.1765945,20.29004 C25.1765945,20.145476 25.1586427,20.025006 25.1227392,19.92863 C25.0868356,19.832254 25.0449482,19.747925 24.9970768,19.675643 C24.6380415,19.1937629 24.2012153,18.8383764 23.6865981,18.6094834 C23.1719809,18.3805904 22.7112189,18.3504729 22.3043123,18.5191309 C21.9213413,18.7118829 21.5383704,19.0853399 21.1553994,19.639502 C20.7724285,20.193664 20.126165,21.338129 19.216609,23.072897 C18.0676961,25.241357 17.1342044,26.735185 16.4161338,27.5543811 C16.1289056,27.8676031 15.9134845,28.0242141 15.7698703,28.0242141 C15.4347708,28.0242141 15.4587064,27.144783 15.8416774,25.385921 C16.4400695,22.663299 16.9666546,20.904437 17.4214326,20.109335 C17.5889824,19.796113 17.3855291,19.4527734 16.8110726,19.0793164 C16.2366162,18.7058594 15.6202723,18.4829899 14.962041,18.4107079 C14.3038097,18.3384259 13.7951764,18.4950369 13.4361411,18.8805409 C12.4787137,20.326181 12,22.398265 12,25.096793 C12,26.349681 12.30518,27.4941461 12.9155399,28.5301881 C13.5258999,29.5662301 14.2379865,30.0842511 15.0517998,30.0842511 C15.4347708,30.0842511 15.7818382,29.9999221 16.0930021,29.8312641 C16.404166,29.6626061 16.6495068,29.4879246 16.8290244,29.3072196 C17.008542,29.1265146 17.241915,28.8554571 17.5291432,28.4940471 C18.2472137,27.5784751 19.0490592,26.241258 19.9346795,24.482396 C19.7192583,25.325686 19.6474513,26.289446 19.7192583,27.3736761 C19.7910654,28.4579061 20.0064865,29.3132431 20.3655218,29.9396871 C20.6766857,30.5420371 21.1194959,31.0359641 21.6939523,31.4214681 C22.2684088,31.8069721 22.8428652,31.9997241 23.4173216,31.9997241 Z M30.6382005,21.826087 C29.9519634,21.5445447 29.4441479,20.9942576 29.1147541,20.1752256 C28.7853603,19.3561936 28.6755623,18.4859721 28.7853603,17.5645611 C28.8951582,16.6431501 29.1696531,15.8753076 29.6088448,15.2610336 C29.9382387,14.8003281 30.2539077,14.6723544 30.5558521,14.8771124 C31.0224933,15.1842494 31.255814,15.9264971 31.255814,17.1038556 C31.255814,18.9466776 31.0499428,20.5207547 30.6382005,21.826087 Z M39.2076186,27.3043478 C39.7907809,27.3043478 40.3866206,27.2205824 40.9951377,27.0530515 C41.6036549,26.8855205 42.1361074,26.6940566 42.5924953,26.4786598 C43.0488831,26.2632629 43.5749969,25.9461508 44.1708367,25.5273235 C44.7666764,25.1084962 45.2167255,24.7674511 45.5209841,24.5041883 C45.8252427,24.2409254 46.2689531,23.8639809 46.8521154,23.3733546 C47.4352776,22.8827284 47.8156009,22.5536498 47.993085,22.3861189 C48.0184399,22.3861189 47.9740689,22.3083367 47.8599719,22.1527722 C47.7458749,21.9972078 47.6191005,21.8595931 47.4796487,21.7399282 C47.3401968,21.6202633 47.245116,21.5843638 47.1944063,21.6322298 C47.042277,21.7518947 46.7126635,22.0331073 46.2055659,22.4758676 C45.6984683,22.9186278 45.3118063,23.2477064 45.0455801,23.4631033 C44.7793538,23.6785002 44.3926919,23.9656961 43.8855942,24.3246909 C43.3784966,24.6836857 42.9474636,24.9529318 42.5924953,25.1324292 C42.2375269,25.3119266 41.8191714,25.4734743 41.3374286,25.6170722 C40.8556859,25.7606701 40.399298,25.8324691 39.968265,25.8324691 C39.5118772,25.8324691 39.1695863,25.6350219 38.9413923,25.2401276 C38.7131984,24.8452333 38.5991014,24.3605903 38.5991014,23.7861986 C38.5737466,22.9964101 38.7385533,22.218588 39.0935216,21.4527323 C40.1330718,21.4527323 41.0965573,21.1416035 41.9839781,20.5193458 C43.0235283,19.8013562 43.5686582,18.8919027 43.619368,17.7909852 C43.619368,17.1687276 43.4038515,16.6422018 42.9728185,16.2114081 C42.5417855,15.7806143 41.895236,15.5652174 41.0331701,15.5652174 C39.8668455,15.5891504 38.6624887,16.1635421 37.4200995,17.2883925 C36.1777103,18.4132429 35.3409992,19.6457918 34.9099662,20.9860391 C34.4789332,22.3262864 34.5042881,23.5588353 34.9860308,24.6836857 C35.3409992,25.5213402 35.8924679,26.1675309 36.6404369,26.6222577 C37.3884059,27.0769844 38.2441331,27.3043478 39.2076186,27.3043478 Z M41.2026136,20.0174829 C40.7443628,20.210164 40.5009171,20.2884407 40.4722764,20.252313 C40.4436358,20.2161853 40.5009171,20.0776957 40.6441205,19.8368443 C40.7873239,19.5959929 40.9806484,19.325035 41.2240941,19.0239707 C41.4675398,18.7229064 41.7038254,18.4760337 41.9329508,18.2833526 C42.0475135,18.2110971 42.154916,18.144863 42.2551583,18.0846501 C42.3554007,18.0244373 42.4628032,17.976267 42.5773659,17.9401393 C42.6919286,17.9040115 42.7850108,17.9040115 42.8566125,17.9401393 C42.9282142,17.976267 42.964015,18.0545437 42.964015,18.1749694 C43.0212963,18.4880763 42.8852531,18.8132257 42.5558854,19.1504177 C42.2265177,19.4876097 41.7754271,19.7766314 41.2026136,20.0174829 Z" id="we" fill="#F2F2F4" fill-rule="nonzero"></path>
            </g>
        </g>
    </g>
</svg>