<?xml version="1.0" encoding="UTF-8"?>
<svg width="50px" height="50px" viewBox="0 0 50 50" version="1.1" xmlns="http://www.w3.org/2000/svg" xmlns:xlink="http://www.w3.org/1999/xlink">
    <!-- Generator: Sketch 64 (93537) - https://sketch.com -->
    <title>Group 3</title>
    <desc>Created with Sketch.</desc>
    <g id="Page-1" stroke="none" stroke-width="1" fill="none" fill-rule="evenodd">
        <g id="Group-3">
            <rect id="Rectangle" fill="#EE3263" x="0" y="0" width="50" height="50"></rect>
            <g id="weTravel_logo" transform="translate(10.625000, 10.625000)">
                <path d="M13.9479412,25.6887849 C20.229962,25.6790865 25.3304083,20.6058756 25.3401207,14.3574512 C25.3498053,8.10902691 20.2650834,3.05154035 13.9830625,3.06122492 C7.70104162,3.07093733 2.60059533,8.14414824 2.59089685,14.3925726" id="Oval-Copy" stroke="#FFFFFF" stroke-linejoin="round" stroke-dasharray="5,5" transform="translate(13.965509, 14.375005) rotate(-165.000000) translate(-13.965509, -14.375005) "></path>
                <path d="M14.635826,19.9998276 C15.7428514,20.0148863 16.8797965,19.0435969 18.0466611,17.0859594 C18.435616,16.4384331 18.8245708,15.5951431 19.2135257,14.5560894 C20.3803904,14.6916181 21.4874158,14.54856 22.534602,14.126915 C22.6692402,14.06668 22.7066397,13.9085631 22.6468005,13.6525644 C22.6019211,13.4869181 22.534602,13.4191537 22.4448432,13.4492712 C22.0409285,13.6299762 21.5883944,13.765505 21.087241,13.8558575 C20.5860876,13.94621 20.0363149,13.94621 19.4379228,13.8558575 C19.7520786,12.62104 19.8642772,11.5669275 19.7745183,10.6935199 C19.7146791,10.0761112 19.5613411,9.59423118 19.3145044,9.24787993 C19.0676676,8.90152867 18.7796914,8.73588242 18.4505758,8.75094117 C18.1214601,8.76599992 17.8147841,8.9542343 17.5305479,9.3156443 C17.2313518,9.69211306 17.0256545,10.1702284 16.913456,10.75 C16.8012575,11.3297521 16.8349171,11.9283375 17.0144347,12.5457462 C17.2837111,13.4191537 17.7699047,14.006445 18.4730155,14.30762 C18.2336586,14.970205 17.8447038,15.7607894 17.3061508,16.6793732 C16.9770352,17.2666644 16.5806004,17.8087794 16.1168465,18.3057182 C15.6530926,18.8026569 15.2117784,19.0285382 14.7929039,18.9833619 C14.6133863,18.9683032 14.4974478,18.8365391 14.4450885,18.5880697 C14.3927292,18.3396004 14.3927292,18.04219 14.4450885,17.6958388 C14.4974478,17.3494875 14.5572871,17.018195 14.6246062,16.7019613 C14.6919253,16.3857275 14.7629843,16.11467 14.8377834,15.8887888 C14.8976226,15.693025 14.9724216,15.4671438 15.0621804,15.211145 C15.1519392,14.9551463 15.2192583,14.7518531 15.2641377,14.6012656 C15.3090172,14.4506781 15.3651164,14.2812672 15.4324355,14.0930328 C15.4997546,13.9047984 15.548374,13.7542109 15.5782936,13.6412703 C15.6082132,13.5283297 15.6381328,13.404095 15.6680524,13.2685662 C15.697972,13.1330375 15.7166718,13.0238615 15.7241517,12.9410384 C15.7316316,12.8582153 15.7353715,12.7716275 15.7353715,12.681275 C15.7353715,12.5909225 15.7241517,12.5156287 15.701712,12.4553937 C15.6792723,12.3951587 15.6530926,12.3424531 15.623173,12.2972768 C15.398776,11.9961018 15.1257596,11.7739853 14.8041238,11.6309271 C14.482488,11.487869 14.1945118,11.4690456 13.9401952,11.5744568 C13.7008383,11.6949268 13.4614815,11.9283375 13.2221246,12.2746887 C12.9827678,12.62104 12.5788531,13.3363306 12.0103806,14.4205606 C11.2923101,15.7758481 10.7088777,16.7094907 10.2600836,17.2214882 C10.080566,17.4172519 9.94592779,17.5151338 9.85616897,17.5151338 C9.64673173,17.5151338 9.66169153,16.9654894 9.90104838,15.8662006 C10.2750435,14.1645619 10.6041591,13.0652731 10.8883954,12.5683343 C10.993114,12.3725706 10.8659557,12.1579834 10.5069204,11.9245728 C10.1478851,11.6911621 9.7626702,11.5518687 9.35127562,11.5066925 C8.93988104,11.4615162 8.62198522,11.5593981 8.39758818,11.8003381 C7.79919606,12.7038631 7.5,13.9989156 7.5,15.6854956 C7.5,16.4685506 7.69073749,17.1838413 8.07221246,17.8313675 C8.45368744,18.4788938 8.89874158,18.8026569 9.40737488,18.8026569 C9.64673173,18.8026569 9.86364887,18.7499513 10.0581263,18.6445401 C10.2526037,18.5391288 10.4059417,18.4299529 10.5181402,18.3170122 C10.6303388,18.2040716 10.7761969,18.0346607 10.9557145,17.8087794 C11.4045086,17.2365469 11.905662,16.4007863 12.4591747,15.3014975 C12.3245365,15.8285538 12.279657,16.4309038 12.3245365,17.1085475 C12.3694159,17.7861913 12.5040541,18.3207769 12.7284511,18.7123044 C12.9229286,19.0887732 13.1996849,19.3974776 13.5587202,19.6384176 C13.9177555,19.8793576 14.2767907,19.9998276 14.635826,19.9998276 Z M19.1488753,13.6413043 C18.7199771,13.4653404 18.4025925,13.121411 18.1967213,12.609516 C17.9908502,12.097621 17.9222265,11.5537326 17.9908502,10.9778507 C18.0594739,10.4019688 18.2310332,9.92206727 18.505528,9.53814602 C18.7113992,9.25020509 18.9086923,9.17022149 19.0974075,9.29819524 C19.3890583,9.49015587 19.5348837,9.95406071 19.5348837,10.6899098 C19.5348837,11.8416735 19.4062143,12.8254717 19.1488753,13.6413043 Z M24.5047616,17.0652174 C24.869238,17.0652174 25.2416379,17.012864 25.6219611,16.9081572 C26.0022843,16.8034503 26.3350671,16.6837854 26.6203095,16.5491623 C26.905552,16.4145393 27.2343731,16.2163442 27.6067729,15.9545772 C27.9791727,15.6928101 28.2604534,15.479657 28.4506151,15.3151177 C28.6407767,15.1505784 28.9180957,14.914988 29.2825721,14.6083466 C29.6470485,14.3017052 29.8847505,14.0960311 29.9956781,13.9913243 C30.0115249,13.9913243 29.983793,13.9427104 29.9124824,13.8454826 C29.8411718,13.7482549 29.7619378,13.6622457 29.6747804,13.5874551 C29.587623,13.5126645 29.5281975,13.4902274 29.4965039,13.5201436 C29.4014231,13.5949342 29.1954147,13.7706921 28.8784787,14.0474172 C28.5615427,14.3241424 28.3198789,14.5298165 28.1534875,14.6644396 C27.9870961,14.7990626 27.7454324,14.97856 27.4284964,15.2029318 C27.1115604,15.4273036 26.8421648,15.5955824 26.6203095,15.7077682 C26.3984543,15.8199541 26.1369821,15.9209214 25.8358929,16.0106701 C25.5348037,16.1004188 25.2495613,16.1452932 24.9801657,16.1452932 C24.6949232,16.1452932 24.4809914,16.0218887 24.3383702,15.7750798 C24.195749,15.5282708 24.1244384,15.225369 24.1244384,14.8663742 C24.1085916,14.3727563 24.2115958,13.8866175 24.433451,13.4079577 C25.0831699,13.4079577 25.6853483,13.2135022 26.2399863,12.8245911 C26.8897052,12.3758476 27.2304114,11.8074392 27.262105,11.1193658 C27.262105,10.7304547 27.1274072,10.4013761 26.8580116,10.13213 C26.5886159,9.86288393 26.1845225,9.72826087 25.6457313,9.72826087 C24.9167785,9.74321899 24.1640554,10.1022138 23.3875622,10.8052453 C22.6110689,11.5082768 22.0881245,12.2786199 21.8187289,13.1162744 C21.5493333,13.953929 21.5651801,14.724272 21.8662693,15.4273036 C22.0881245,15.9508377 22.4327924,16.3547068 22.900273,16.638911 C23.3677537,16.9231153 23.9025832,17.0652174 24.5047616,17.0652174 Z M25.7516335,12.5109268 C25.4652268,12.6313525 25.3130732,12.6802754 25.2951728,12.6576956 C25.2772724,12.6351158 25.3130732,12.5485598 25.4025753,12.3980277 C25.4920774,12.2474955 25.6129052,12.0781469 25.7650588,11.8899817 C25.9172124,11.7018165 26.0648909,11.5475211 26.2080942,11.4270953 C26.2796959,11.3819357 26.3468225,11.3405394 26.409474,11.3029063 C26.4721254,11.2652733 26.539252,11.2351669 26.6108537,11.212587 C26.6824554,11.1900072 26.7406317,11.1900072 26.7853828,11.212587 C26.8301338,11.2351669 26.8525094,11.2840898 26.8525094,11.3593559 C26.8883102,11.5550477 26.8032832,11.7582661 26.5974284,11.9690111 C26.3915735,12.1797561 26.1096419,12.3603946 25.7516335,12.5109268 Z" id="we" fill="#F2F2F4" fill-rule="nonzero"></path>
            </g>
        </g>
    </g>
</svg>